<?xml version="1.0" standalone="no"?>
<!DOCTYPE svg PUBLIC "-//W3C//DTD SVG 20010904//EN"
 "http://www.w3.org/TR/2001/REC-SVG-20010904/DTD/svg10.dtd">
<svg version="1.0" xmlns="http://www.w3.org/2000/svg"
 width="1024.000000pt" height="1024.000000pt" viewBox="0 0 1024.000000 1024.000000"
 preserveAspectRatio="xMidYMid meet">

<g transform="translate(0.000000,1024.000000) scale(0.100000,-0.100000)"
fill="#000000" stroke="none">
<path d="M0 5120 l0 -5120 5120 0 5120 0 0 5120 0 5120 -5120 0 -5120 0 0
-5120z m2677 1181 c52 -24 94 -84 100 -145 3 -25 13 -52 22 -59 9 -8 99 -63
201 -122 102 -59 266 -157 366 -216 l181 -109 7 -62 c3 -33 6 -215 6 -402 l0
-342 35 -33 c123 -116 85 -289 -74 -331 -37 -10 -51 -9 -86 4 l-42 17 -219
-132 c-120 -72 -254 -152 -297 -176 -59 -35 -79 -52 -83 -72 -20 -95 -75 -170
-140 -191 -44 -15 -115 1 -160 35 -38 29 -74 99 -74 142 0 27 -7 35 -67 70
-278 164 -418 246 -481 282 l-73 42 -54 -12 c-47 -10 -60 -10 -99 5 -25 10
-59 33 -75 51 -72 83 -65 193 17 265 l44 39 -2 384 c-1 355 0 385 17 405 10
11 184 120 387 240 l370 220 13 62 c12 59 30 92 62 115 71 50 128 57 198 26z
m3272 -1181 l3 -330 -56 0 -56 0 0 32 0 32 -27 -26 c-93 -88 -246 -50 -298 74
-18 44 -20 141 -4 189 14 42 53 94 84 115 65 42 156 37 215 -12 l30 -26 0 141
0 141 53 0 53 0 3 -330z m171 -2 l0 -328 -50 0 -49 0 -3 326 c-2 179 -2 327 0
328 1 2 25 3 52 2 l50 -1 0 -327z m-1980 167 l0 -135 135 0 135 0 0 135 0 135
60 0 60 0 0 -315 0 -315 -60 0 -60 0 0 130 0 130 -135 0 -135 0 0 -130 0 -130
-60 0 -60 0 0 315 0 315 60 0 60 0 0 -135z m3635 105 c22 -11 58 -38 80 -60
l39 -40 -41 -42 -42 -41 -26 32 c-36 43 -75 61 -128 61 -149 0 -219 -222 -111
-349 61 -71 148 -77 229 -16 l43 33 36 -37 37 -38 -44 -40 c-61 -57 -120 -77
-206 -71 -159 12 -265 136 -265 313 0 104 25 168 93 235 31 31 72 61 91 67 60
19 169 16 215 -7z m1075 -90 l0 -70 50 0 50 0 0 -45 0 -45 -50 0 -50 0 0 -124
c0 -141 6 -153 65 -142 l35 7 0 -45 c0 -41 -2 -45 -30 -51 -80 -18 -153 26
-171 101 -4 22 -9 87 -9 147 l0 107 -30 0 c-29 0 -30 2 -30 45 0 43 1 45 30
45 l30 0 0 70 0 70 55 0 55 0 0 -70z m-3944 -86 c62 -30 113 -117 114 -196 l0
-38 -155 0 c-171 0 -173 -1 -138 -61 36 -61 114 -62 224 -2 7 4 49 -58 49 -71
0 -4 -28 -20 -62 -36 -111 -53 -215 -37 -285 44 -42 47 -56 95 -51 176 3 52 9
76 31 108 61 93 173 123 273 76z m425 15 c49 -15 88 -57 100 -105 4 -22 9
-108 9 -191 l0 -153 -50 0 c-47 0 -50 1 -50 26 l0 26 -30 -25 c-93 -78 -240
-10 -240 111 0 24 7 57 16 73 30 59 148 88 214 54 l30 -16 0 36 c0 43 -36 85
-73 85 -22 0 -89 -18 -129 -35 -13 -5 -21 2 -33 31 -9 22 -12 41 -7 46 16 16
125 47 166 47 21 1 56 -4 77 -10z m1158 -14 c63 -32 106 -100 117 -184 l7 -51
-162 0 c-88 0 -161 -2 -161 -5 0 -3 6 -21 14 -39 29 -70 93 -84 185 -41 30 14
55 24 56 23 1 -2 11 -17 23 -35 12 -17 22 -34 22 -37 0 -4 -28 -20 -62 -36
-115 -55 -236 -34 -296 49 -117 162 -6 395 180 377 26 -3 61 -12 77 -21z m373
11 c25 -7 55 -20 67 -28 l20 -14 -24 -36 -24 -36 -38 19 c-44 22 -72 24 -97 6
-34 -25 -12 -53 64 -82 119 -45 160 -121 110 -203 -45 -74 -135 -93 -227 -47
-75 38 -80 47 -47 90 24 31 29 34 43 21 25 -21 78 -46 100 -46 11 0 27 10 35
22 22 31 5 54 -62 78 -91 34 -122 68 -122 136 0 49 35 98 85 120 39 17 61 17
117 0z m377 -4 c60 -23 70 -41 42 -81 l-22 -31 -39 20 c-46 24 -83 26 -100 5
-23 -27 -6 -49 58 -76 119 -49 154 -97 132 -178 -27 -100 -165 -134 -263 -64
-22 15 -42 33 -43 38 -2 6 8 23 21 40 23 28 26 29 47 16 57 -36 81 -44 107
-35 20 7 26 16 26 39 0 26 -6 31 -64 55 -90 36 -121 69 -121 127 0 58 24 98
75 123 48 24 85 25 144 2z m997 -5 c63 -32 69 -53 72 -254 l4 -183 -51 0 c-48
0 -51 1 -51 26 l0 26 -30 -25 c-64 -54 -175 -37 -220 35 -29 46 -23 127 11
164 47 52 144 70 199 39 35 -20 36 -20 32 25 -3 28 -12 46 -29 60 -32 25 -69
25 -135 0 -28 -11 -53 -19 -54 -17 -1 1 -9 19 -18 40 -17 42 -21 39 79 73 50
17 150 12 191 -9z m252 -20 l3 -28 35 31 c26 23 44 30 74 30 l40 0 0 -49 c0
-48 0 -48 -37 -54 -90 -15 -113 -60 -113 -222 l0 -115 -55 0 -55 0 0 221 0
220 53 -3 c49 -3 52 -5 55 -31z"/>
<path d="M2564 6196 c-51 -22 -60 -81 -19 -121 30 -30 64 -32 99 -4 42 33 35
99 -15 124 -33 18 -26 18 -65 1z"/>
<path d="M2165 5819 c-165 -98 -308 -183 -318 -189 -15 -9 -16 -14 -7 -25 6
-8 102 -67 213 -131 111 -64 277 -161 369 -216 92 -54 172 -98 178 -98 13 0
222 118 470 265 85 51 188 111 228 134 39 23 72 46 72 51 0 11 9 5 -230 145
-102 59 -237 138 -300 176 -114 67 -114 67 -140 50 -65 -46 -121 -48 -195 -6
l-40 22 -300 -178z"/>
<path d="M1758 5492 c-2 -4 -2 -149 0 -322 l4 -315 46 -30 c63 -41 87 -91 87
-180 l1 -69 89 -53 c215 -127 473 -273 485 -273 6 0 25 8 41 17 l29 17 0 387
c0 356 -1 387 -17 393 -17 7 -190 107 -538 311 -200 117 -222 128 -227 117z"/>
<path d="M3300 5426 c-196 -118 -495 -293 -565 -331 -38 -21 -72 -40 -75 -43
-3 -2 -3 -173 -2 -380 3 -333 6 -379 20 -395 39 -44 46 -43 190 41 156 90 403
239 416 252 5 5 9 39 10 77 2 84 22 123 94 177 l52 39 -2 311 c-3 267 -5 311
-18 313 -8 2 -62 -26 -120 -61z"/>
<path d="M1655 4725 c-29 -28 -31 -54 -10 -94 37 -72 135 -47 135 34 0 43 -37
85 -75 85 -14 0 -37 -11 -50 -25z"/>
<path d="M3431 4723 c-54 -45 -24 -133 45 -133 67 0 107 73 68 128 -19 28 -82
30 -113 5z"/>
<path d="M2559 4177 c-21 -16 -39 -51 -39 -77 0 -29 44 -70 75 -70 37 0 75 42
75 83 0 61 -66 99 -111 64z"/>
<path d="M5685 5126 c-50 -22 -68 -51 -72 -114 -5 -69 10 -101 57 -124 65 -32
138 6 161 81 30 99 -60 196 -146 157z"/>
<path d="M4763 5131 c-31 -19 -53 -49 -53 -70 0 -7 34 -11 95 -11 87 0 95 2
95 19 0 29 -40 69 -75 75 -20 4 -40 0 -62 -13z"/>
<path d="M5225 4983 c-53 -13 -72 -66 -35 -103 25 -25 66 -25 108 0 24 15 32
27 32 50 0 38 -52 65 -105 53z"/>
<path d="M6355 5136 c-25 -11 -38 -27 -63 -78 -2 -5 42 -8 97 -8 114 0 122 7
74 59 -34 37 -68 45 -108 27z"/>
<path d="M8095 4983 c-53 -13 -72 -66 -35 -103 25 -25 66 -25 108 0 26 16 32
26 32 54 0 32 -3 36 -37 45 -21 6 -40 10 -43 10 -3 -1 -14 -4 -25 -6z"/>
</g>
</svg>
